<svg class="logo-svg" width="368" height="59" viewBox="0 0 368 59" fill="none" xmlns="http://www.w3.org/2000/svg">
<circle cx="4.50209" cy="29.1552" r="4.50209" fill="#333333"/>
<path d="M54.511 1.43943C25.7557 -3.63878 17.5251 16.9977 17.0041 27.9507L38.6227 27.9507C51.1249 26.4571 54.4242 9.65418 54.511 1.43943Z" fill="#333333" stroke="#333333" stroke-width="0.521961"/>
<path d="M54.511 56.8711C25.7557 61.9493 17.5251 41.3129 17.0042 30.3599L38.6227 30.3599C51.1249 31.8535 54.4242 48.6564 54.511 56.8711Z" fill="#333333" stroke="#333333" stroke-width="0.521961"/>
<path d="M77.3499 0.743896C81.2114 0.301954 85.2432 1.37562 88.8079 4.70093C92.3632 8.01761 95.4329 13.5536 97.4407 22.0017C99.4489 30.4521 100.401 41.8428 99.6995 56.9041L99.6877 57.1619L99.4426 57.2429C97.0751 58.0232 93.2727 57.9123 89.4631 55.1648C86.0228 52.6835 82.6002 48.0706 80.1907 40.075V57.2615H58.0891L58.0569 56.9216C57.4297 50.2974 57.1546 39.8832 58.2776 29.9587C58.8391 24.9964 59.7513 20.1446 61.1497 15.946C62.5464 11.7527 64.4389 8.17824 66.9797 5.80249C69.8401 3.1281 73.5002 1.1846 77.3499 0.743896ZM82.1292 16.0242C81.0246 16.0242 80.0331 16.5288 79.3557 17.3289C78.6783 16.529 77.6876 16.0242 76.5833 16.0242C74.5415 16.0242 72.886 17.7484 72.886 19.8757C72.886 20.9016 73.2721 21.8329 73.8997 22.5232C73.2718 23.2135 72.8861 24.1456 72.886 25.1716C72.886 27.299 74.5415 29.0242 76.5833 29.0242C77.688 29.0242 78.6783 28.5179 79.3557 27.7175C80.0332 28.5181 81.0242 29.0242 82.1292 29.0242C84.1708 29.024 85.8254 27.2989 85.8254 25.1716C85.8253 24.1454 85.4398 23.2135 84.8118 22.5232C85.4395 21.8329 85.8254 20.9017 85.8254 19.8757C85.8254 17.7485 84.1708 16.0243 82.1292 16.0242ZM79.3557 22.4216C79.3848 22.456 79.4143 22.4899 79.4446 22.5232C79.4143 22.5564 79.3848 22.5904 79.3557 22.6248C79.3265 22.5902 79.2963 22.5566 79.2659 22.5232C79.2963 22.4898 79.3265 22.4562 79.3557 22.4216Z" fill="#333333"/>
<rect x="102.929" y="0.64917" width="15.7573" height="57.0122" rx="2" fill="#333333"/>
<path d="M119.824 2.64917C119.824 1.5446 120.72 0.64917 121.824 0.64917H125.077C133.365 0.64917 140.084 7.36801 140.084 15.6561V57.4127H121.824C120.72 57.4127 119.824 56.5173 119.824 55.4127V2.64917Z" fill="#333333"/>
<rect x="143.084" y="0.64917" width="16" height="56.7463" rx="2.85121" fill="#333333"/>
<ellipse cx="169.173" cy="29.1553" rx="25.5" ry="28.5061" fill="#333333"/>
<ellipse class="circle-dots" cx="165.906" cy="27.4738" rx="3.90613" ry="3.82464" fill="#F6F5F0"/>
<ellipse class="circle-dots" cx="171.766" cy="27.4738" rx="3.90613" ry="3.82464" fill="#F6F5F0"/>
<ellipse class="circle-dots" cx="171.766" cy="32.7326" rx="3.90613" ry="3.82464" fill="#F6F5F0"/>
<ellipse class="circle-dots" cx="165.906" cy="32.7326" rx="3.90613" ry="3.82464" fill="#F6F5F0"/>
<path d="M209.956 0.64917H242.221V17.2011H218.96C215.443 17.2011 215.068 22.2586 218.96 22.2586H242.221V36.9715H218.96C223.697 43.8681 233.217 42.3355 242.221 40.6497V57.6614H209.956C194.433 57.6614 196.95 36.3584 199.826 28.2357C193.823 9.84468 204.563 0.64917 209.956 0.64917Z" fill="#333333" stroke="#333333" stroke-width="0.750348"/>
<path d="M267.61 57.6614C271.898 13.952 254.471 1.44101 245.221 0.64917L245.221 33.5104C246.482 52.5144 260.672 57.5294 267.61 57.6614Z" fill="#333333" stroke="#333333" stroke-width="0.616863"/>
<path d="M292.663 29.6736C273.864 32.1614 268.573 49.3687 268.277 57.6614H292.663V29.6736Z" fill="#333333" stroke="#333333" stroke-width="0.886775"/>
<path d="M320.667 2.10779C296.008 3.04235 295.441 22.8193 297.017 29.674L330.554 28.403C349.038 27.7024 349.546 8.25697 349.271 1.02369L320.667 2.10779Z" fill="#333333" stroke="#333333" stroke-width="1.97413"/>
<path d="M320.685 30.6355C296.008 30.6355 294.692 50.3768 296.008 57.2862H329.569C348.066 57.2862 349.31 37.874 349.31 30.6355H320.685Z" fill="#333333" stroke="#333333" stroke-width="1.97413"/>
<circle cx="362.783" cy="29.1552" r="4.50209" fill="#333333"/>
</svg>
